<?xml version="1.0" encoding="UTF-8"?>
<svg xmlns="http://www.w3.org/2000/svg" xmlns:xlink="http://www.w3.org/1999/xlink" width="85pt" height="77pt" viewBox="0 0 85 77" version="1.1">
<g id="surface1">
<path style=" stroke:none;fill-rule:nonzero;fill:rgb(94.901961%,94.901961%,94.901961%);fill-opacity:1;" d="M 59.320312 76.410156 C 58.1875 75.445312 57.5 73.921875 57.679688 72.4375 C 57.859375 70.953125 58.976562 69.585938 60.425781 69.269531 C 61.871094 68.957031 63.523438 69.828125 63.964844 71.257812 C 64.207031 68.503906 64.484375 65.632812 65.933594 63.289062 C 67.246094 61.164062 69.523438 59.644531 71.988281 59.375 C 74.449219 59.101562 77.046875 60.128906 78.582031 62.09375 C 80.121094 64.058594 80.496094 66.914062 79.421875 69.167969 C 78.628906 70.828125 77.167969 72.066406 75.636719 73.074219 C 70.6875 76.296875 64.753906 77.605469 58.925781 76.761719 "/>
<path style=" stroke:none;fill-rule:nonzero;fill:rgb(100%,100%,100%);fill-opacity:1;" d="M 76.148438 60.1875 C 74.113281 61.859375 72.246094 63.730469 70.578125 65.769531 C 67.960938 68.957031 65.847656 72.523438 64.300781 76.355469 C 64.191406 76.636719 64.640625 76.757812 64.75 76.480469 C 67.273438 70.253906 71.308594 64.765625 76.476562 60.515625 C 76.707031 60.328125 76.375 59.996094 76.148438 60.1875 Z M 76.148438 60.1875 "/>
<path style=" stroke:none;fill-rule:nonzero;fill:rgb(90.196078%,90.196078%,90.196078%);fill-opacity:1;" d="M 41.902344 12.960938 L 2.140625 12.960938 C 5.722656 5.136719 13.484375 0.128906 22.023438 0.128906 C 30.558594 0.128906 38.320312 5.136719 41.902344 12.960938 Z M 41.902344 12.960938 "/>
<path style=" stroke:none;fill-rule:nonzero;fill:rgb(33.333333%,10.196078%,54.509804%);fill-opacity:1;" d="M 39.722656 32.304688 L 41.390625 31.480469 C 41.765625 31.292969 42.214844 31.449219 42.398438 31.828125 L 48.789062 45.027344 C 49.199219 45.871094 48.851562 46.890625 48.019531 47.304688 C 47.183594 47.714844 46.175781 47.367188 45.765625 46.523438 L 39.375 33.324219 C 39.191406 32.945312 39.347656 32.488281 39.722656 32.304688 Z M 39.722656 32.304688 "/>
<path style=" stroke:none;fill-rule:nonzero;fill:rgb(18.431373%,18.039216%,25.490196%);fill-opacity:1;" d="M 46.097656 35.835938 C 46.160156 35.40625 45.742188 35.023438 45.316406 34.96875 C 44.890625 34.910156 44.46875 35.082031 44.070312 35.25 C 43.363281 35.550781 42.644531 35.855469 42.054688 36.347656 C 41.464844 36.839844 41.011719 37.558594 41.015625 38.332031 C 41.023438 39.070312 41.425781 39.734375 41.820312 40.355469 L 45.496094 46.175781 C 45.882812 46.789062 46.324219 47.449219 47.007812 47.683594 C 47.464844 47.816406 47.953125 47.796875 48.398438 47.621094 C 49.773438 47.105469 50.660156 45.746094 50.578125 44.265625 C 50.453125 42.597656 49.144531 41.320312 48.160156 39.972656 C 47.191406 38.636719 46.496094 37.117188 46.117188 35.503906 "/>
<path style=" stroke:none;fill-rule:nonzero;fill:rgb(33.333333%,10.196078%,54.509804%);fill-opacity:1;" d="M 35.742188 67.242188 C 35.546875 67.242188 35.355469 67.167969 35.203125 67.039062 L 33.804688 65.808594 C 33.464844 65.507812 33.429688 64.984375 33.726562 64.640625 L 43.890625 52.851562 C 44.183594 52.507812 44.703125 52.472656 45.042969 52.773438 L 46.441406 54.003906 C 46.785156 54.304688 46.820312 54.824219 46.523438 55.167969 L 36.359375 66.957031 C 36.203125 67.140625 35.980469 67.242188 35.742188 67.242188 Z M 35.742188 67.242188 "/>
<path style=" stroke:none;fill-rule:nonzero;fill:rgb(33.333333%,10.196078%,54.509804%);fill-opacity:1;" d="M 34.289062 56.960938 C 33.964844 56.960938 33.671875 56.765625 33.539062 56.464844 L 32.792969 54.75 C 32.613281 54.332031 32.800781 53.84375 33.210938 53.660156 L 47.386719 47.378906 C 47.800781 47.195312 48.285156 47.382812 48.464844 47.800781 L 49.210938 49.519531 C 49.390625 49.9375 49.207031 50.421875 48.792969 50.605469 L 34.617188 56.890625 C 34.511719 56.9375 34.402344 56.960938 34.289062 56.960938 Z M 34.289062 56.960938 "/>
<path style=" stroke:none;fill-rule:nonzero;fill:rgb(33.333333%,10.196078%,54.509804%);fill-opacity:1;" d="M 32.992188 62.988281 L 34.847656 63.078125 C 35.265625 63.101562 35.621094 62.777344 35.640625 62.355469 L 36.011719 54.660156 C 36.03125 54.238281 35.710938 53.878906 35.292969 53.859375 L 33.4375 53.765625 C 33.023438 53.746094 32.667969 54.070312 32.648438 54.488281 L 32.277344 62.1875 C 32.257812 62.605469 32.578125 62.964844 32.992188 62.988281 Z M 32.992188 62.988281 "/>
<path style=" stroke:none;fill-rule:nonzero;fill:rgb(33.333333%,10.196078%,54.509804%);fill-opacity:1;" d="M 65.554688 34.941406 C 65.554688 38.519531 62.679688 41.421875 59.136719 41.421875 C 55.589844 41.421875 52.71875 38.519531 52.71875 34.941406 C 52.71875 31.363281 55.589844 28.460938 59.136719 28.460938 C 62.679688 28.460938 65.554688 31.363281 65.554688 34.941406 Z M 65.554688 34.941406 "/>
<path style=" stroke:none;fill-rule:nonzero;fill:rgb(18.431373%,18.039216%,25.490196%);fill-opacity:1;" d="M 56.738281 46.152344 L 56.75 46.097656 C 56.804688 45.835938 56.71875 45.558594 56.519531 45.375 L 54.070312 43.125 L 54.355469 42.792969 C 54.628906 42.476562 54.597656 41.992188 54.285156 41.71875 L 52.765625 40.382812 C 52.449219 40.105469 51.972656 40.140625 51.699219 40.457031 L 51.460938 40.730469 L 49.242188 38.691406 C 49.042969 38.507812 48.757812 38.445312 48.5 38.53125 C 42.484375 40.488281 37.960938 45.546875 36.648438 51.792969 L 36.636719 51.847656 C 36.582031 52.113281 36.667969 52.386719 36.867188 52.566406 L 44.144531 59.253906 C 44.347656 59.4375 44.628906 59.5 44.886719 59.417969 C 50.90625 57.457031 55.425781 52.398438 56.738281 46.152344 Z M 56.738281 46.152344 "/>
<path style=" stroke:none;fill-rule:nonzero;fill:rgb(33.333333%,10.196078%,54.509804%);fill-opacity:1;" d="M 46.042969 60.835938 L 44.28125 60.246094 C 43.882812 60.117188 43.667969 59.683594 43.800781 59.285156 L 48.355469 45.332031 C 48.644531 44.4375 49.597656 43.953125 50.480469 44.25 C 51.363281 44.542969 51.84375 45.503906 51.550781 46.394531 L 47 60.351562 C 46.867188 60.75 46.441406 60.96875 46.042969 60.835938 Z M 46.042969 60.835938 "/>
<path style=" stroke:none;fill-rule:nonzero;fill:rgb(18.431373%,18.039216%,25.490196%);fill-opacity:1;" d="M 44.75 53.136719 C 44.402344 53.394531 44.425781 53.960938 44.679688 54.308594 C 44.9375 54.65625 45.355469 54.84375 45.75 55.011719 C 46.457031 55.3125 47.175781 55.621094 47.9375 55.703125 C 48.695312 55.785156 49.523438 55.613281 50.070312 55.070312 C 50.585938 54.550781 50.773438 53.796875 50.941406 53.078125 L 52.503906 46.359375 C 52.667969 45.644531 52.828125 44.867188 52.515625 44.210938 C 52.292969 43.785156 51.9375 43.445312 51.503906 43.246094 C 50.175781 42.613281 48.59375 42.925781 47.601562 44.015625 C 46.503906 45.269531 46.515625 47.109375 46.246094 48.757812 C 45.972656 50.394531 45.382812 51.957031 44.503906 53.355469 "/>
<path style=" stroke:none;fill-rule:nonzero;fill:rgb(18.431373%,18.039216%,25.490196%);fill-opacity:1;" d="M 56.253906 36.753906 C 56.140625 36.570312 56.066406 36.359375 56.039062 36.140625 C 56.015625 35.839844 56.121094 35.539062 56.335938 35.324219 C 56.484375 35.164062 56.699219 35.089844 56.910156 35.113281 C 57.183594 35.148438 57.417969 35.351562 57.566406 35.660156 L 59.175781 33.722656 L 59.367188 33.882812 L 57.476562 36.164062 L 57.40625 35.945312 C 57.324219 35.6875 57.144531 35.402344 56.878906 35.367188 C 56.742188 35.351562 56.605469 35.402344 56.511719 35.503906 C 56.351562 35.664062 56.273438 35.886719 56.289062 36.117188 C 56.332031 36.5 56.589844 36.828125 56.890625 37.1875 L 56.703125 37.351562 C 56.535156 37.167969 56.386719 36.96875 56.253906 36.753906 Z M 56.253906 36.753906 "/>
<path style=" stroke:none;fill-rule:nonzero;fill:rgb(18.431373%,18.039216%,25.490196%);fill-opacity:1;" d="M 57.089844 32.101562 L 57.277344 31.929688 L 58.1875 32.945312 L 58 33.117188 Z M 57.089844 32.101562 "/>
<path style=" stroke:none;fill-rule:nonzero;fill:rgb(18.431373%,18.039216%,25.490196%);fill-opacity:1;" d="M 59.96875 35.300781 L 60.152344 35.128906 L 61.0625 36.140625 L 60.878906 36.3125 Z M 59.96875 35.300781 "/>
<path style=" stroke:none;fill-rule:nonzero;fill:rgb(18.431373%,18.039216%,25.490196%);fill-opacity:1;" d="M 63.945312 35.441406 C 62.179688 34.488281 60.207031 33.4375 59.234375 31.574219 C 58.796875 30.738281 58.558594 29.738281 58.710938 28.792969 C 58.859375 27.882812 59.386719 27.082031 60.164062 26.601562 C 61.703125 25.632812 63.753906 25.75 65.4375 26.203125 C 67.152344 26.679688 68.726562 27.5625 70.03125 28.78125 C 71.355469 30 72.378906 31.519531 73.007812 33.214844 C 73.316406 34.054688 73.511719 34.925781 73.589844 35.816406 C 73.675781 37.023438 73.609375 38.234375 73.394531 39.425781 C 73.011719 41.757812 72.296875 44.027344 72.03125 46.378906 C 71.789062 48.5 71.90625 50.753906 72.953125 52.65625 C 73.765625 54.132812 75.140625 55.226562 76.6875 55.832031 C 78.246094 56.457031 79.964844 56.539062 81.574219 56.066406 C 81.964844 55.945312 82.34375 55.789062 82.707031 55.601562 C 82.921875 55.488281 82.730469 55.160156 82.515625 55.269531 C 81.027344 56.054688 79.265625 56.167969 77.652344 55.746094 C 76.039062 55.320312 74.535156 54.359375 73.585938 52.960938 C 72.378906 51.183594 72.175781 48.9375 72.359375 46.84375 C 72.570312 44.464844 73.296875 42.171875 73.707031 39.828125 C 73.941406 38.621094 74.035156 37.390625 73.992188 36.164062 C 73.945312 35.234375 73.773438 34.316406 73.480469 33.429688 C 72.289062 29.914062 69.539062 27.160156 66.046875 25.988281 C 64.347656 25.433594 62.339844 25.230469 60.648438 25.929688 C 59.804688 26.277344 59.058594 26.875 58.65625 27.71875 C 58.238281 28.589844 58.207031 29.597656 58.433594 30.527344 C 58.945312 32.601562 60.640625 33.976562 62.390625 35.007812 C 62.839844 35.273438 63.296875 35.523438 63.757812 35.769531 C 63.96875 35.886719 64.160156 35.558594 63.945312 35.441406 Z M 63.945312 35.441406 "/>
<path style=" stroke:none;fill-rule:nonzero;fill:rgb(24.705882%,23.921569%,33.72549%);fill-opacity:1;" d="M 22.023438 44.472656 C 9.878906 44.472656 0 34.496094 0 22.234375 C -0.0078125 19.015625 0.683594 15.828125 2.027344 12.90625 C 5.628906 5.035156 13.433594 0 22.023438 0 C 30.609375 0 38.414062 5.035156 42.019531 12.90625 C 43.359375 15.828125 44.054688 19.015625 44.042969 22.234375 C 44.042969 34.496094 34.164062 44.472656 22.023438 44.472656 Z M 22.023438 0.253906 C 13.539062 0.269531 5.832031 5.246094 2.253906 13.015625 C 0.925781 15.902344 0.246094 19.050781 0.253906 22.234375 C 0.253906 34.355469 10.019531 44.21875 22.023438 44.21875 C 34.027344 44.21875 43.792969 34.355469 43.792969 22.234375 C 43.800781 19.050781 43.117188 15.902344 41.789062 13.015625 C 38.214844 5.246094 30.507812 0.269531 22.023438 0.253906 Z M 22.023438 0.253906 "/>
<path style=" stroke:none;fill-rule:nonzero;fill:rgb(100%,100%,100%);fill-opacity:1;" d="M 30.109375 10.574219 L 13.824219 10.574219 C 13.550781 10.574219 13.296875 10.429688 13.164062 10.191406 C 13.027344 9.953125 13.027344 9.660156 13.164062 9.421875 C 13.296875 9.183594 13.550781 9.035156 13.824219 9.039062 L 30.109375 9.039062 C 30.382812 9.035156 30.636719 9.183594 30.773438 9.421875 C 30.90625 9.660156 30.90625 9.953125 30.773438 10.191406 C 30.636719 10.429688 30.382812 10.574219 30.109375 10.574219 Z M 30.109375 10.574219 "/>
<path style=" stroke:none;fill-rule:nonzero;fill:rgb(100%,100%,100%);fill-opacity:1;" d="M 24.890625 7.269531 L 19.046875 7.269531 C 18.773438 7.269531 18.523438 7.125 18.386719 6.886719 C 18.25 6.648438 18.25 6.355469 18.386719 6.117188 C 18.523438 5.878906 18.773438 5.734375 19.046875 5.734375 L 24.890625 5.734375 C 25.160156 5.734375 25.414062 5.878906 25.550781 6.117188 C 25.6875 6.355469 25.6875 6.648438 25.550781 6.886719 C 25.414062 7.125 25.160156 7.269531 24.890625 7.269531 Z M 24.890625 7.269531 "/>
<path style=" stroke:none;fill-rule:nonzero;fill:rgb(100%,39.607843%,51.764706%);fill-opacity:1;" d="M 13.839844 20.632812 L 13.347656 20.472656 C 11.59375 19.875 10.441406 19.492188 10.03125 18.558594 C 9.695312 17.832031 10.007812 16.964844 10.730469 16.628906 C 10.742188 16.621094 10.753906 16.617188 10.765625 16.609375 C 11.1875 16.421875 11.671875 16.433594 12.082031 16.636719 C 12.210938 16.191406 12.527344 15.824219 12.945312 15.632812 C 13.667969 15.300781 14.523438 15.621094 14.855469 16.351562 C 14.859375 16.363281 14.867188 16.375 14.871094 16.390625 C 15.28125 17.324219 14.789062 18.441406 14.050781 20.15625 Z M 13.839844 20.632812 "/>
<path style=" stroke:none;fill-rule:nonzero;fill:rgb(24.705882%,23.921569%,33.72549%);fill-opacity:1;" d="M 28.972656 35.253906 L 14.835938 35.253906 C 13.925781 35.25 13.183594 34.507812 13.183594 33.585938 L 13.183594 24.5 C 13.183594 23.582031 13.925781 22.832031 14.835938 22.832031 L 28.972656 22.832031 C 29.886719 22.832031 30.625 23.582031 30.625 24.5 L 30.625 33.585938 C 30.625 34.507812 29.886719 35.25 28.972656 35.253906 Z M 14.835938 23.203125 C 14.128906 23.203125 13.550781 23.785156 13.550781 24.5 L 13.550781 33.585938 C 13.550781 34.300781 14.128906 34.882812 14.835938 34.882812 L 28.972656 34.882812 C 29.683594 34.882812 30.257812 34.300781 30.257812 33.585938 L 30.257812 24.5 C 30.257812 23.785156 29.683594 23.203125 28.972656 23.203125 Z M 14.835938 23.203125 "/>
<path style=" stroke:none;fill-rule:nonzero;fill:rgb(24.705882%,23.921569%,33.72549%);fill-opacity:1;" d="M 21.828125 28.960938 C 21.453125 28.960938 21.082031 28.84375 20.773438 28.628906 L 13.679688 23.621094 L 13.890625 23.316406 L 20.984375 28.324219 C 21.484375 28.675781 22.148438 28.679688 22.65625 28.335938 L 29.957031 23.351562 L 30.164062 23.660156 L 22.863281 28.644531 C 22.554688 28.851562 22.195312 28.960938 21.828125 28.960938 Z M 21.828125 28.960938 "/>
<path style=" stroke:none;fill-rule:nonzero;fill:rgb(24.705882%,23.921569%,33.72549%);fill-opacity:1;" d="M 24.015625 28.949219 C 24.015625 30.179688 23.03125 31.175781 21.8125 31.175781 C 20.597656 31.175781 19.609375 30.179688 19.609375 28.949219 C 19.609375 27.722656 20.597656 26.726562 21.8125 26.726562 C 23.03125 26.726562 24.015625 27.722656 24.015625 28.949219 Z M 24.015625 28.949219 "/>
<path style=" stroke:none;fill-rule:nonzero;fill:rgb(90.196078%,90.196078%,90.196078%);fill-opacity:1;" d="M 84.972656 77.019531 L 29.3125 77.019531 C 29.257812 77.019531 29.207031 76.992188 29.183594 76.945312 C 29.15625 76.898438 29.15625 76.839844 29.183594 76.792969 C 29.207031 76.746094 29.257812 76.714844 29.3125 76.714844 L 84.972656 76.714844 C 85.023438 76.714844 85.074219 76.746094 85.101562 76.792969 C 85.128906 76.839844 85.128906 76.898438 85.101562 76.945312 C 85.074219 76.992188 85.023438 77.019531 84.972656 77.019531 Z M 84.972656 77.019531 "/>
</g>
</svg>
